{"title":"Say Yes to the Dress - Full Season 2 (2008)","uid":9697194,"size":926489732,"categoryP":"video","categoryS":"tv_shows","magnet":"?xt=urn:btih:6968795b557b152dd2c4f2732141ddd3e56ff23d&amp;dn=Say+Yes+to+the+Dress+-+Full+Season+2+%282008%29&amp;tr=udp%3A%2F%2Ftracker.openbittorrent.com%3A80&amp;tr=udp%3A%2F%2Fopen.demonii.com%3A1337&amp;tr=udp%3A%2F%2Ftracker.coppersurfer.tk%3A6969&amp;tr=udp%3A%2F%2Fexodus.desync.com%3A6969","seeders":10,"leechers":1,"uploader":"April22","files":-1,"time":1393952272,"description":"Episode list:\n2x01 - Here Comes the Bride Again and Again\n2x02 - Bridal BFF's\n2x03 - Mother Knows Best\n2x04 - I Do - Redux\n2x05 - Daddy's Little Girl\n2x06 - Bridal Blow Out\n2x07 - Runway Bridal\n2x08 - Every Bride Counts\n2x09 - Grooms in Gowns\n2x10 - What a Bride Wants\n2x11 - It's Always Something\n2x12 - Double the Trouble\n\nFormat                           : MPEG-4\nFormat profile                   : Base Media / Version 2\nCodec ID                         : mp42\nFile size                        : 75.7 MiB\nDuration                         : 21mn 11s\nOverall bit rate                 : 499 Kbps\nEncoded date                     : UTC 2012-04-25 13:01:40\nTagged date                      : UTC 2012-04-25 13:01:40\ngsst                             : 0\ngstd                             : 1271291\ngssd                             : BADC23A4CMH1372588411043791\ngshh                             :\n\nVideo\nID                               : 1\nFormat                           : AVC\nFormat/Info                      : Advanced Video Codec\nFormat profile                   : &lt;a class=&quot;__cf_email__&quot; href=&quot;/cdn-cgi/l/email-protection&quot; data-cfemail=&quot;a3e1c2d0c6cfcacdc6e3ef908d93&quot;&gt;[email&amp;#160;protected]&lt;/a&gt;&lt;script cf-hash='f9e31' type=&quot;text/javascript&quot;&gt;\n/* &lt;![CDATA[ */!function(){try{var t=&quot;currentScript&quot;in document?document.currentScript:function(){for(var t=document.getElementsByTagName(&quot;script&quot;),e=t.length;e--;)if(t[e].getAttribute(&quot;cf-hash&quot;))return t[e]}();if(t&amp;&amp;t.previousSibling){var e,r,n,i,c=t.previousSibling,a=c.getAttribute(&quot;data-cfemail&quot;);if(a){for(e=&quot;&quot;,r=parseInt(a.substr(0,2),16),n=2;a.length-n;n+=2)i=parseInt(a.substr(n,2),16)^r,e+=String.fromCharCode(i);e=document.createTextNode(e),c.parentNode.replaceChild(e,c)}}}catch(u){}}();/* ]]&gt; */&lt;/script&gt;\nFormat settings, CABAC           : No\nFormat settings, ReFrames        : 1 frame\nFormat settings, GOP             : M=1, N=39\nCodec ID                         : avc1\nCodec ID/Info                    : Advanced Video Coding\nDuration                         : 21mn 11s\nBit rate mode                    : Variable\nBit rate                         : 401 Kbps\nMaximum bit rate                 : 1 367 Kbps\nWidth                            : 578 pixels\nHeight                           : 360 pixels\nDisplay aspect ratio             : 1.606\nFrame rate mode                  : Constant\nFrame rate                       : 23.976 fps\nColor space                      : YUV\nChroma subsampling               : 4:2:0\nBit depth                        : 8 bits\nScan type                        : Progressive\nBits/(Pixel*Frame)               : 0.080\nStream size                      : 60.8 MiB (80%)\nTagged date                      : UTC 2012-04-25 13:01:40\n\nAudio\nID                               : 2\nFormat                           : AAC\nFormat/Info                      : Advanced Audio Codec\nFormat profile                   : LC\nCodec ID                         : 40\nDuration                         : 21mn 11s\nBit rate mode                    : Variable\nBit rate                         : 96.0 Kbps\nMaximum bit rate                 : 114 Kbps\nChannel(s)                       : 2 channels\nChannel positions                : Front: L R\nSampling rate                    : 44.1 KHz\nCompression mode                 : Lossy\nStream size                      : 14.5 MiB (19%)\nTitle                            : IsoMedia File Produced by Google, 5-11-2011\nEncoded date                     : UTC 2012-04-25 13:01:40\nTagged date                      : UTC 2012-04-25 13:01:40\n","torrent":{"xt":"urn:btih:6968795b557b152dd2c4f2732141ddd3e56ff23d","amp;dn":"Say+Yes+to+the+Dress+-+Full+Season+2+%282008%29","amp;tr":["udp%3A%2F%2Ftracker.openbittorrent.com%3A80","udp%3A%2F%2Fopen.demonii.com%3A1337","udp%3A%2F%2Ftracker.coppersurfer.tk%3A6969","udp%3A%2F%2Fexodus.desync.com%3A6969"],"infoHash":"6968795b557b152dd2c4f2732141ddd3e56ff23d","infoHashBuffer":{"type":"Buffer","data":[105,104,121,91,85,123,21,45,210,196,242,115,33,65,221,211,229,111,242,61]},"announce":[],"urlList":[]}}